<svg width="12" height="12" viewBox="0 0 12 12" fill="none" xmlns="http://www.w3.org/2000/svg">
<g clip-path="url(#clip0_78_5755)">
<path d="M5.23596 0.611685C6.22323 0.519882 7.23595 0.706111 8.12225 1.15201C9.24277 1.70808 10.1542 2.6707 10.6495 3.81903C11.0849 4.81837 11.2008 5.95149 10.9852 7.01903C10.805 7.92394 10.383 8.77824 9.77733 9.47411C9.18192 10.1613 8.40972 10.6938 7.55464 11.0025C6.49235 11.3886 5.30782 11.4248 4.2235 11.1074C3.21366 10.8144 2.29825 10.213 1.6231 9.40722C1.04081 8.71581 0.636875 7.87463 0.465859 6.98624C0.263892 5.94755 0.372744 4.84854 0.785334 3.87358C1.19294 2.90152 1.89537 2.05667 2.7751 1.47621C3.50691 0.990963 4.36068 0.690635 5.23543 0.612209M4.2736 2.65942C4.1073 2.74519 3.92946 2.83306 3.82192 2.99332C3.63937 3.24381 3.6454 3.61339 3.84238 3.85365C4.00343 4.06008 4.28356 4.16237 4.54009 4.11018C4.7132 4.0766 4.85694 3.96591 5.02166 3.90821C5.3435 3.79017 5.69917 3.76526 6.03491 3.83267C6.32186 3.88959 6.59255 4.06559 6.72264 4.33313C6.86166 4.59621 6.85195 4.90126 6.84933 5.19004H8.57602C8.58127 4.80814 8.55556 4.42152 8.4475 4.05352C8.32159 3.60762 8.07451 3.19136 7.71727 2.89339C7.33432 2.56893 6.84487 2.39109 6.35071 2.32893C5.64645 2.24237 4.90992 2.3368 4.27333 2.65942M3.02743 5.21601C2.94009 5.25798 2.88133 5.34978 2.88002 5.44683L2.87346 6.89339C2.89969 6.74231 2.91727 6.58834 2.9692 6.44329C3.09196 6.06742 3.36737 5.75267 3.70704 5.55542C4.16973 5.28473 4.71609 5.19135 5.24671 5.19398C4.58153 5.18191 3.91609 5.19267 3.25064 5.18821C3.17589 5.18978 3.09642 5.18139 3.02769 5.21601M5.46835 6.0349C5.28579 6.08814 5.12264 6.20434 5.01327 6.36014C4.77248 6.68749 4.81655 7.18427 5.11451 7.46178C5.40723 7.75948 5.92291 7.78178 6.24159 7.51267C6.56369 7.26244 6.65287 6.7709 6.44173 6.42257C6.2555 6.0905 5.83215 5.92211 5.46861 6.0349M2.87451 7.1646C2.88605 7.62886 2.87451 8.09312 2.88055 8.55791C2.8871 8.83988 3.01012 9.11607 3.21419 9.3107C3.41222 9.50217 3.68527 9.61312 3.96068 9.61234L7.47674 9.61207C7.77445 9.61286 8.08395 9.5208 8.2993 9.30781C8.48553 9.12788 8.57891 8.86716 8.57602 8.61089C8.55687 8.68748 8.50336 8.76303 8.41654 8.76224L7.18586 8.76408C7.08933 8.76985 6.997 8.68906 6.9991 8.59096C6.99333 8.44408 6.99936 8.29719 6.99727 8.1503C6.65786 8.49653 6.2151 8.73653 5.74245 8.84276C5.26166 8.94978 4.75307 8.94637 4.27674 8.81758C3.82297 8.6943 3.39753 8.42152 3.14809 8.01575C2.98337 7.76132 2.91123 7.4623 2.87451 7.16591V7.1646Z" fill="#FDB813"/>
<path d="M4.27304 2.65871C4.90989 2.33661 5.64642 2.24166 6.35042 2.32822C6.84432 2.39038 7.33402 2.56822 7.71697 2.89268C8.07422 3.19064 8.3213 3.60717 8.4472 4.05281C8.55474 4.42107 8.58097 4.80743 8.57573 5.18933H6.84904C6.85166 4.90081 6.8611 4.59549 6.72235 4.33241C6.59225 4.06487 6.32156 3.88913 6.03461 3.83195C5.69887 3.76454 5.3432 3.78946 5.02137 3.9075C4.85665 3.9652 4.71317 4.07589 4.53979 4.10946C4.28327 4.16192 4.00314 4.05963 3.84209 3.85294C3.64537 3.61241 3.63907 3.24284 3.82163 2.99261C3.92917 2.83261 4.10701 2.74448 4.2733 2.65871H4.27304Z" fill="#231F20"/>
<path d="M3.02728 5.2153C3.09626 5.18068 3.17574 5.18907 3.25023 5.1875L5.24629 5.19327C4.71593 5.19065 4.16957 5.28402 3.70662 5.55471C3.36695 5.75196 3.09154 6.06671 2.96878 6.44258C2.91685 6.58763 2.89928 6.7416 2.87305 6.89268C2.88616 6.41058 2.87305 5.92822 2.8796 5.44612C2.88092 5.34907 2.93993 5.25727 3.02701 5.2153H3.02728ZM5.46793 6.03419C5.83173 5.9214 6.25482 6.08979 6.44105 6.42186C6.65219 6.77019 6.56301 7.26173 6.24091 7.51196C5.92223 7.78081 5.40682 7.75851 5.11383 7.46107C4.81613 7.18356 4.7718 6.68678 5.01259 6.35943C5.12196 6.20363 5.28537 6.08743 5.46767 6.03419H5.46793ZM2.87383 7.16389C2.91056 7.46081 2.98269 7.75983 3.14741 8.01373C3.39659 8.41924 3.82203 8.69255 4.27606 8.81556C4.75239 8.94409 5.26098 8.94776 5.74177 8.84074C6.21442 8.73478 6.65718 8.49504 6.99659 8.14829C6.99868 8.29517 6.99265 8.44206 6.99842 8.58894C6.99632 8.6873 7.08865 8.76809 7.18518 8.76206L8.41586 8.76022C8.50242 8.76101 8.55619 8.68547 8.57534 8.60888C8.57796 8.8654 8.48459 9.1256 8.29862 9.30579C8.08354 9.51878 7.77403 9.61084 7.47606 9.61005H3.96C3.68459 9.6111 3.4118 9.49989 3.21351 9.30842C3.00944 9.11432 2.88642 8.83786 2.87987 8.55563L2.87383 7.16232V7.16389Z" fill="#231F20"/>
</g>
<defs>
<clipPath id="clip0_78_5755">
<rect width="11.5672" height="12" fill="white"/>
</clipPath>
</defs>
</svg>
