<svg width="12" height="13" viewBox="0 0 12 13" fill="none" xmlns="http://www.w3.org/2000/svg">
<g clip-path="url(#clip0_78_5762)">
<path d="M6.31714 11.835L1.19214 8.8775V2.96L6.31714 0L11.4421 2.96V8.8775L6.31714 11.835ZM1.58214 8.65L3.94964 10.0175L6.31714 11.3825L8.68464 10.0175L11.0521 8.65V3.185L8.68464 1.8175L6.31714 0.4525L1.58214 3.185V8.65Z" fill="black"/>
<path d="M4.73706 5.16211L5.75706 8.27461H6.28956L6.74956 6.89711V5.54211L6.07456 7.72961C6.06956 7.74211 6.05456 7.79211 6.02956 7.88211H6.02206L5.97206 7.72961L5.14206 5.16461L4.73706 5.16211Z" fill="black"/>
<path fill-rule="evenodd" clip-rule="evenodd" d="M5.89933 5.16211L4.88183 8.27461H4.34933L3.30933 5.16461H3.77183L4.56183 7.72961C4.56683 7.74211 4.58183 7.79211 4.60683 7.88211H4.61433L4.66433 7.72961L5.49433 5.16461L5.89933 5.16211Z" fill="black"/>
<path d="M7.20215 5.4298C7.28215 5.3398 7.38215 5.2623 7.50215 5.1948C7.67715 5.0973 7.87715 5.0498 8.09715 5.0498C8.45965 5.0498 8.75465 5.1448 8.98215 5.3398C9.20965 5.5323 9.32465 5.8098 9.32465 6.1748V8.2723H8.90215V6.2848C8.90215 5.9998 8.81715 5.7848 8.64715 5.6423C8.47465 5.4998 8.26715 5.4273 8.02715 5.4273C7.78215 5.4273 7.56465 5.5098 7.38215 5.6698C7.30715 5.7348 7.24965 5.8048 7.20465 5.8823V5.4298H7.20215Z" fill="black"/>
<path d="M7.25433 3.5625H6.74683V8.2725H7.25433V3.5625Z" fill="#8C8D93"/>
</g>
<defs>
<clipPath id="clip0_78_5762">
<rect width="11" height="13" fill="white" transform="translate(0.727295)"/>
</clipPath>
</defs>
</svg>
